<svg aria-hidden="true"
     style="position: absolute; width: 0; height: 0; overflow: hidden;"
     version="1.1" xmlns="http://www.w3.org/2000/svg"
     xmlns:xlink="http://www.w3.org/1999/xlink">
    <defs>
        <symbol id="icon-menu" viewBox="0 0 32 32">
            <path d="M29.333 24.007c0 0.733-0.595 1.327-1.327 1.327h-10.68c-0.733 0-1.327-0.594-1.327-1.327s0.594-1.327 1.327-1.327h10.68c0.733 0 1.327 0.593 1.327 1.327zM29.333 16c0 0.733-0.595 1.327-1.327 1.327h-24.013c-0.733 0-1.327-0.594-1.327-1.327s0.594-1.327 1.327-1.327h24.013c0.733 0 1.327 0.595 1.327 1.327zM28.007 9.32c0.733 0 1.327-0.594 1.327-1.327s-0.594-1.327-1.327-1.327h-16.013c-0.733 0-1.327 0.594-1.327 1.327s0.594 1.327 1.327 1.327h16.013z"></path>
        </symbol>
        <symbol id="icon-arrow" viewBox="0 0 43 32">
            <path d="M42.674 13.598h-40.262v4.804h40.262v-4.804zM5.809 16l11.889-11.889c0.951-0.951 0.951-2.446 0-3.397s-2.446-0.951-3.397 0l-13.588 13.588c-0.951 0.951-0.951 2.446 0 3.397l13.588 13.588c0.951 0.951 2.446 0.951 3.397 0s0.951-2.446 0-3.397l-11.889-11.889z"></path>
        </symbol>
        <symbol id="icon-advantage" viewBox="0 0 38 32">
            <path d="M37.52 7.485c-0.339-0.307-0.748-0.504-1.183-0.569s-0.877 0.004-1.278 0.201l-8.456 4.126c-0.037 0.022-0.078 0.036-0.12 0.041s-0.085 0-0.125-0.014-0.078-0.036-0.111-0.066c-0.033-0.030-0.059-0.067-0.079-0.108l-4.94-9.762c-0.2-0.404-0.496-0.74-0.855-0.975s-0.77-0.358-1.188-0.358-0.828 0.124-1.188 0.358c-0.359 0.235-0.655 0.571-0.855 0.975l-4.939 9.762c-0.019 0.042-0.046 0.078-0.079 0.108s-0.070 0.053-0.111 0.066c-0.041 0.014-0.083 0.018-0.125 0.014s-0.083-0.019-0.12-0.041l-8.456-4.126c-0.399-0.199-0.842-0.271-1.277-0.208s-0.845 0.26-1.183 0.567c-0.338 0.307-0.592 0.712-0.731 1.17s-0.159 0.949-0.057 1.418l4.27 19.947c0.072 0.337 0.206 0.655 0.393 0.933s0.424 0.512 0.695 0.688c0.358 0.241 0.769 0.368 1.189 0.368 0.215-0.002 0.428-0.033 0.636-0.092 7.806-2.375 16.051-2.382 23.86-0.018 0.305 0.097 0.624 0.125 0.939 0.082s0.618-0.156 0.892-0.331c0.274-0.176 0.513-0.411 0.702-0.69s0.324-0.599 0.398-0.939l4.253-19.947c0.106-0.466 0.090-0.956-0.046-1.412s-0.387-0.861-0.724-1.167zM36.348 9.548l-4.27 19.947c-0.023 0.097-0.076 0.182-0.151 0.239-0.083 0.044-0.177 0.057-0.268 0.037-8.163-2.48-16.785-2.48-24.949 0-0.044 0.014-0.090 0.017-0.135 0.011s-0.089-0.023-0.128-0.049c-0.039-0.026-0.073-0.060-0.1-0.101s-0.045-0.087-0.055-0.136l-4.27-19.947c-0.010-0.055-0.008-0.112 0.004-0.166s0.035-0.105 0.067-0.149c0.032-0.044 0.072-0.079 0.118-0.104s0.096-0.039 0.147-0.040l0.134 0.037 8.473 4.144c0.534 0.265 1.14 0.298 1.695 0.093s1.020-0.633 1.302-1.198l4.94-9.762c0.026-0.058 0.067-0.107 0.117-0.141s0.108-0.052 0.167-0.052c0.059 0 0.117 0.018 0.167 0.052s0.091 0.083 0.117 0.141l4.939 9.762c0.281 0.565 0.746 0.993 1.302 1.198s1.161 0.172 1.695-0.093l8.472-4.144c0.057-0.028 0.121-0.038 0.183-0.028s0.121 0.039 0.169 0.083c0.049 0.043 0.086 0.101 0.107 0.166s0.024 0.135 0.011 0.203zM25.548 23.546c-0.029 0.272-0.146 0.523-0.331 0.706s-0.424 0.286-0.673 0.288h-0.1c-3.496-0.387-7.019-0.387-10.515 0-0.264 0.031-0.529-0.054-0.736-0.237s-0.34-0.449-0.369-0.739c-0.024-0.292 0.058-0.583 0.227-0.811s0.412-0.373 0.677-0.405c3.629-0.424 7.288-0.424 10.917 0 0.262 0.032 0.503 0.175 0.671 0.398s0.252 0.509 0.233 0.799z"></path>
        </symbol>
        <symbol id="icon-atom" viewBox="0 0 29 32">
            <path d="M14.389 0c-1.149 0-2.222 0.523-3.136 1.38s-1.697 2.050-2.35 3.495c-0.137 0.303-0.267 0.617-0.392 0.942-0.337-0.053-0.675-0.097-1.014-0.132-0.395-0.039-0.78-0.064-1.154-0.072-1.123-0.027-2.149 0.087-3.048 0.36-1.199 0.364-2.189 1.031-2.763 2.026s-0.658 2.186-0.373 3.406c0.285 1.22 0.927 2.495 1.852 3.783 0.194 0.27 0.402 0.541 0.621 0.812-0.214 0.264-0.421 0.535-0.62 0.811-0.926 1.288-1.567 2.562-1.852 3.783s-0.201 2.411 0.373 3.406c0.574 0.995 1.564 1.663 2.763 2.026s2.624 0.445 4.202 0.287c0.331-0.033 0.669-0.077 1.013-0.131 0.122 0.318 0.253 0.633 0.393 0.944 0.653 1.446 1.435 2.639 2.35 3.495s1.987 1.38 3.136 1.38c1.149 0 2.222-0.523 3.136-1.38s1.697-2.050 2.35-3.495c0.14-0.311 0.271-0.625 0.393-0.944 0.343 0.054 0.681 0.098 1.012 0.131 1.578 0.158 3.003 0.076 4.202-0.287s2.189-1.031 2.763-2.026c0.574-0.995 0.658-2.186 0.373-3.406s-0.927-2.495-1.852-3.783c-0.199-0.276-0.406-0.546-0.62-0.811 0.215-0.265 0.421-0.535 0.621-0.812 0.926-1.288 1.567-2.562 1.852-3.783s0.201-2.411-0.373-3.406c-0.574-0.995-1.564-1.662-2.763-2.026-0.899-0.273-1.926-0.386-3.048-0.36-0.374 0.009-0.759 0.033-1.154 0.072-0.331 0.033-0.669 0.077-1.013 0.132-0.122-0.318-0.253-0.632-0.392-0.942-0.652-1.446-1.435-2.639-2.35-3.495s-1.988-1.38-3.136-1.38l0 0zM14.389 1.278c0.766 0 1.518 0.337 2.262 1.035s1.456 1.754 2.059 3.089c0.098 0.218 0.191 0.438 0.279 0.659-1.464 0.326-3.016 0.825-4.601 1.493-1.585-0.667-3.136-1.167-4.6-1.492 0.090-0.226 0.183-0.447 0.279-0.66 0.602-1.334 1.314-2.391 2.059-3.089s1.496-1.034 2.262-1.034l-0 0zM5.938 6.889c0.123-0.001 0.249-0 0.376 0.002 0.339 0.008 0.692 0.029 1.056 0.066 0.233 0.023 0.471 0.053 0.713 0.088-0.45 1.431-0.793 3.024-1.008 4.731-1.371 1.039-2.579 2.133-3.593 3.239-0.148-0.188-0.293-0.379-0.433-0.573-0.854-1.189-1.413-2.333-1.645-3.327s-0.148-1.813 0.235-2.477c0.383-0.664 1.050-1.146 2.027-1.442 0.641-0.194 1.409-0.299 2.272-0.307l0 0zM22.839 6.889c0.864 0.008 1.631 0.113 2.272 0.307 0.977 0.296 1.644 0.778 2.027 1.442s0.467 1.482 0.235 2.477c-0.232 0.994-0.791 2.138-1.645 3.327-0.14 0.194-0.284 0.385-0.433 0.573-1.014-1.106-2.222-2.199-3.593-3.238-0.215-1.707-0.558-3.3-1.008-4.731 0.242-0.035 0.479-0.065 0.712-0.088 0.351-0.036 0.703-0.058 1.056-0.066 0.125-0.003 0.251-0.004 0.376-0.003v0zM19.426 7.275c0.34 1.056 0.621 2.22 0.831 3.467-0.678-0.458-1.373-0.892-2.082-1.302s-1.431-0.793-2.167-1.152c1.184-0.441 2.334-0.78 3.418-1.013v-0zM9.352 7.275c1.084 0.233 2.233 0.572 3.417 1.013-0.736 0.358-1.458 0.742-2.167 1.152s-1.403 0.843-2.081 1.301c0.21-1.246 0.491-2.411 0.831-3.466zM14.389 8.948c1.040 0.459 2.095 0.992 3.148 1.599s2.043 1.255 2.96 1.927c0.123 1.13 0.189 2.311 0.189 3.526s-0.066 2.395-0.189 3.525c-0.917 0.671-1.907 1.319-2.959 1.927s-2.108 1.141-3.148 1.6c-1.040-0.459-2.096-0.992-3.148-1.6s-2.041-1.255-2.958-1.926c-0.123-1.13-0.189-2.311-0.189-3.526s0.066-2.397 0.189-3.527c0.917-0.671 1.907-1.319 2.959-1.926s2.108-1.141 3.148-1.599v-0zM14.475 10.87l-3.658 2.258 3.658 2.258 3.659-2.258-3.659-2.258zM6.901 13.546c-0.058 0.817-0.086 1.635-0.086 2.454 0 0.834 0.029 1.653 0.086 2.452-0.974-0.805-1.842-1.631-2.587-2.453 0.744-0.822 1.612-1.648 2.587-2.453zM21.877 13.547c0.974 0.805 1.842 1.631 2.586 2.453-0.744 0.822-1.612 1.648-2.586 2.452 0.057-0.816 0.086-1.634 0.086-2.452 0-0.835-0.029-1.653-0.086-2.453h0zM9.992 14.121v4.458l3.842 2.371v-4.458l-3.842-2.371zM18.954 14.123l-3.841 2.371v4.456l3.841-2.371v-4.456h-0zM3.481 16.984c1.014 1.106 2.223 2.199 3.593 3.238 0.215 1.706 0.558 3.299 1.008 4.73-0.241 0.035-0.479 0.065-0.712 0.088-1.457 0.145-2.728 0.057-3.704-0.239s-1.644-0.779-2.027-1.442c-0.383-0.664-0.467-1.482-0.235-2.477s0.791-2.138 1.645-3.327c0.14-0.194 0.284-0.385 0.432-0.572zM25.296 16.984c0.151 0.191 0.295 0.382 0.432 0.572 0.854 1.189 1.413 2.333 1.645 3.327s0.148 1.813-0.235 2.477c-0.383 0.664-1.050 1.146-2.027 1.442s-2.247 0.384-3.704 0.239c-0.238-0.024-0.475-0.053-0.711-0.088 0.45-1.431 0.793-3.024 1.008-4.731 1.37-1.039 2.578-2.132 3.592-3.237l-0 0zM20.257 21.257c-0.21 1.246-0.491 2.411-0.831 3.467-1.084-0.233-2.234-0.572-3.418-1.014 0.736-0.358 1.459-0.743 2.168-1.152s1.403-0.843 2.081-1.301h-0zM8.521 21.258c0.678 0.458 1.372 0.892 2.080 1.3s1.432 0.794 2.168 1.152c-1.184 0.441-2.333 0.78-3.417 1.013-0.34-1.055-0.621-2.22-0.831-3.466zM14.427 21.316l0.047 0.029 0.046-0.029h-0.093zM14.388 24.445c1.586 0.667 3.137 1.167 4.602 1.492-0.088 0.222-0.182 0.443-0.28 0.661-0.602 1.334-1.314 2.391-2.059 3.089s-1.496 1.035-2.262 1.035c-0.766 0-1.518-0.337-2.262-1.035s-1.456-1.754-2.059-3.089c-0.098-0.218-0.192-0.439-0.28-0.661 1.464-0.326 3.015-0.825 4.601-1.492h-0z"></path>
        </symbol>
        <symbol id="icon-products" viewBox="0 0 41 32">
            <path d="M13.381 10.378h-12.676c-0.389 0-0.704 0.302-0.704 0.676v4.054c0 0.374 0.315 0.676 0.704 0.676h0.704v15.54c0 0.374 0.315 0.676 0.704 0.676h9.859c0.389 0 0.704-0.302 0.704-0.676v-15.54h0.704c0.389 0 0.704-0.302 0.704-0.676v-4.054c0-0.374-0.315-0.676-0.704-0.676zM5.634 23.216v-1.351h4.226v-1.351h-4.226v-1.351h5.634v8.784h-5.634v-3.378h1.409v-1.351h-1.409zM11.268 17.811h-6.338c-0.389 0-0.704 0.302-0.704 0.676v10.135c0 0.374 0.315 0.676 0.704 0.676h6.338v1.351h-8.451v-14.865h8.451v2.027zM12.676 14.432h-11.268v-2.703h11.268v2.703z"></path>
            <path d="M22.712 10.505v-4.94c0-0.385-0.315-0.696-0.704-0.696h-0.704v-3.478h1.409v-1.391h-7.747v1.391h4.93v3.478h-0.704c-0.389 0-0.704 0.311-0.704 0.696v4.94c-1.605 0.323-2.817 1.728-2.817 3.408v17.391c0 0.385 0.315 0.696 0.704 0.696h8.451c0.389 0 0.704-0.311 0.704-0.696v-17.391c0-1.679-1.212-3.085-2.817-3.408zM19.895 6.261h1.408v4.174h-1.408v-4.174zM19.19 11.826h2.817c1.165 0 2.113 0.936 2.113 2.087v0.696h-7.042v-0.696c0-1.151 0.948-2.087 2.113-2.087zM24.12 27.826h-7.042v-1.391h2.817v-1.391h-2.817v-9.044h7.042v11.826zM17.078 30.609v-1.391h7.042v1.391h-7.042z"></path>
            <path d="M40.714 9.514h-11.884c-0.365 0-0.66 0.305-0.66 0.681v21.124c0 0.377 0.295 0.681 0.66 0.681h11.884c0.365 0 0.66-0.305 0.66-0.681v-21.124c0-0.377-0.295-0.681-0.66-0.681zM40.054 30.637h-10.564v-19.761h10.564v19.761z"></path>
            <path d="M10.563 23.351h-1.761v0.865h1.761v-0.865z"></path>
            <path d="M22.888 25.081h-1.761v1.73h1.761v-1.73z"></path>
            <path d="M20.687 23.351c1.699 0 3.081-1.358 3.081-3.027s-1.382-3.027-3.081-3.027c-1.699 0-3.081 1.358-3.081 3.027s1.382 3.027 3.081 3.027zM20.687 18.811c0.85 0 1.541 0.679 1.541 1.514s-0.691 1.513-1.541 1.513-1.541-0.679-1.541-1.513c0-0.835 0.691-1.514 1.541-1.514z"></path>
            <path d="M33.121 16.433h3.301c1.274 0 2.311-0.97 2.311-2.162s-1.037-2.162-2.311-2.162h-3.301c-1.274 0-2.311 0.97-2.311 2.162s1.037 2.162 2.311 2.162zM37.413 14.27c0 0.511-0.444 0.927-0.99 0.927h-0.99v-1.853h0.99c0.546 0 0.99 0.416 0.99 0.927zM33.121 13.344h0.99v1.853h-0.99c-0.546 0-0.99-0.416-0.99-0.927s0.444-0.927 0.99-0.927z"></path>
            <path d="M33.121 23.351h3.301c1.274 0 2.311-1.164 2.311-2.595s-1.037-2.595-2.311-2.595h-3.301c-1.274 0-2.311 1.164-2.311 2.595s1.037 2.595 2.311 2.595zM37.413 20.757c0 0.613-0.444 1.112-0.99 1.112h-0.99v-2.224h0.99c0.546 0 0.99 0.499 0.99 1.112zM33.121 19.645h0.99v2.224h-0.99c-0.546 0-0.99-0.499-0.99-1.112s0.444-1.112 0.99-1.112z"></path>
            <path d="M33.121 29.405h3.301c1.274 0 2.311-1.164 2.311-2.595s-1.037-2.595-2.311-2.595h-3.301c-1.274 0-2.311 1.164-2.311 2.595s1.037 2.595 2.311 2.595zM37.413 26.811c0 0.613-0.444 1.112-0.99 1.112h-0.99v-2.224h0.99c0.546 0 0.99 0.499 0.99 1.112zM33.121 25.699h0.99v2.224h-0.99c-0.546 0-0.99-0.499-0.99-1.112s0.444-1.112 0.99-1.112z"></path>
        </symbol>
        <symbol id="icon-facebook" viewBox="0 0 32 32">
            <path d="M23.987 2.128c-1.345-0.143-2.697-0.212-4.049-0.208-4.484 0-7.271 2.856-7.271 7.453v3.121h-3.767c-0.177 0-0.346 0.070-0.471 0.195s-0.195 0.295-0.195 0.471v5.133c0 0.177 0.070 0.346 0.195 0.471s0.295 0.195 0.471 0.195h3.767v10.293c0 0.177 0.070 0.346 0.195 0.471s0.295 0.195 0.471 0.195h5.304c0.177 0 0.346-0.070 0.471-0.195s0.195-0.295 0.195-0.471v-10.293h3.755c0.162 0 0.318-0.059 0.44-0.165s0.2-0.254 0.221-0.415l0.663-5.133c0.012-0.094 0.005-0.19-0.023-0.28s-0.074-0.175-0.137-0.246c-0.063-0.071-0.14-0.128-0.226-0.168s-0.18-0.059-0.275-0.059h-4.417v-2.612c0-1.293 0.26-1.833 1.877-1.833h2.719c0.177 0 0.346-0.070 0.471-0.195s0.195-0.295 0.195-0.471v-4.593c0-0.162-0.059-0.318-0.165-0.44s-0.254-0.2-0.415-0.221zM23.233 6.715l-2.053 0.001c-2.876 0-3.209 1.808-3.209 3.167v3.28c0 0.177 0.070 0.346 0.195 0.471s0.294 0.195 0.471 0.196h4.328l-0.492 3.8h-3.835c-0.177 0-0.346 0.070-0.471 0.195s-0.195 0.295-0.195 0.471v10.291h-3.971v-10.291c0-0.177-0.070-0.346-0.195-0.471s-0.295-0.195-0.471-0.195h-3.765v-3.8h3.765c0.177 0 0.346-0.070 0.471-0.195s0.195-0.295 0.195-0.471v-3.789c0-3.832 2.22-6.12 5.937-6.12 1.345 0 2.56 0.073 3.296 0.137v3.324z"></path>
        </symbol>
        <symbol id="icon-instagram" viewBox="0 0 32 32">
            <path d="M16 10.25c-1.137 0-2.249 0.337-3.194 0.969s-1.683 1.53-2.118 2.581c-0.435 1.051-0.549 2.207-0.327 3.322s0.77 2.14 1.574 2.944c0.804 0.804 1.829 1.352 2.944 1.574s2.272 0.108 3.322-0.327c1.051-0.435 1.949-1.172 2.581-2.118s0.969-2.057 0.969-3.194c0-1.525-0.606-2.987-1.684-4.066s-2.541-1.684-4.066-1.684zM16 20.25c-0.841 0-1.662-0.249-2.361-0.716s-1.244-1.131-1.565-1.907c-0.322-0.777-0.406-1.631-0.242-2.456s0.569-1.582 1.163-2.176 1.352-0.999 2.176-1.163c0.824-0.164 1.679-0.080 2.456 0.242s1.44 0.866 1.907 1.565c0.467 0.699 0.716 1.521 0.716 2.361-0.003 1.126-0.452 2.205-1.248 3.002s-1.875 1.245-3.002 1.248zM21.5 3.75h-11c-1.79 0-3.507 0.711-4.773 1.977s-1.977 2.983-1.977 4.773v11c0 1.79 0.711 3.507 1.977 4.773s2.983 1.977 4.773 1.977h11c1.79 0 3.507-0.711 4.773-1.977s1.977-2.983 1.977-4.773v-11c0-1.79-0.711-3.507-1.977-4.773s-2.983-1.977-4.773-1.977zM26.75 21.5c0 1.392-0.553 2.728-1.538 3.712s-2.32 1.538-3.712 1.538h-11c-1.392 0-2.728-0.553-3.712-1.538s-1.538-2.32-1.538-3.712v-11c0-1.392 0.553-2.728 1.538-3.712s2.32-1.538 3.712-1.538h11c1.392 0 2.728 0.553 3.712 1.538s1.538 2.32 1.538 3.712v11zM23.75 9.5c0 0.247-0.073 0.489-0.211 0.694s-0.332 0.366-0.561 0.46c-0.229 0.095-0.48 0.119-0.722 0.071s-0.465-0.167-0.64-0.342-0.294-0.398-0.342-0.64c-0.048-0.242-0.023-0.494 0.071-0.722s0.255-0.424 0.46-0.561c0.206-0.137 0.447-0.211 0.695-0.211 0.331 0 0.649 0.132 0.884 0.366s0.366 0.552 0.366 0.884z"></path>
        </symbol>
        <symbol id="icon-tel" viewBox="0 0 32 32">
            <path d="M27.654 22.957l-0.173-0.216c-1.372-1.735-2.519-2.637-3.503-2.756-0.851-0.116-1.673 0.472-2.548 1.077l-0.935 0.584c-0.112 0.056-0.223 0.101-0.327 0.132-0.547 0.155-1.927 0.245-2.708-0.469-0.909-0.832-2.32-2.355-3.417-3.685-1.048-1.377-2.2-3.095-2.801-4.176-0.508-0.916-0.083-2.197 0.201-2.672 0.056-0.093 0.129-0.185 0.211-0.276l0.824-0.761c0.012-0.012 0.017-0.027 0.028-0.037 0.008-0.008 0.021-0.005 0.031-0.012 0.744-0.628 1.513-1.275 1.619-2.105 0.124-0.976-0.483-2.296-1.857-4.029l-0.168-0.216c-0.851-1.091-2.137-2.74-3.985-2.468-0.727 0.108-1.376 0.356-2.045 0.776-0.007 0.004-0.011 0.012-0.016 0.016s-0.012 0.004-0.017 0.008l-0.932 0.691c-0.009 0.005-0.015 0.017-0.024 0.025-0.007 0.007-0.017 0.008-0.025 0.015-0.108 0.091-0.216 0.184-0.323 0.28-0.945 0.843-2.992 3.289-1.596 7.815 0.901 2.923 2.76 6.333 5.388 9.883l-0.025 0.021 1.449 1.805 0.012-0.009c2.849 3.371 5.749 5.976 8.407 7.553 1.773 1.053 3.323 1.401 4.597 1.401 1.677 0 2.879-0.603 3.481-0.995l0.379-0.253c0.043-0.029 0.073-0.071 0.104-0.108l0.825-0.621c0.009-0.008 0.015-0.019 0.024-0.027 0.004-0.004 0.011-0.003 0.016-0.007 0.587-0.536 0.993-1.097 1.276-1.763 0.732-1.705-0.579-3.339-1.445-4.42zM28.12 26.959c-0.22 0.517-0.541 0.957-1.005 1.384l-1.228 0.924c-1.112 0.723-3.489 1.616-6.943-0.435-2.657-1.577-5.583-4.244-8.461-7.712l-0.779-0.984c-2.711-3.595-4.617-7.037-5.517-9.955-1.169-3.793 0.304-5.828 1.291-6.707 0.1-0.091 0.2-0.175 0.299-0.259l0.004-0.004 0.895-0.663c0.544-0.344 1.048-0.536 1.628-0.624 1.239-0.187 2.247 1.12 2.987 2.069l0.173 0.22c1.536 1.937 1.684 2.859 1.636 3.235-0.053 0.417-0.688 0.952-1.248 1.423l-0.079 0.067c-0.003 0.003-0.004 0.007-0.007 0.009-0.004 0.003-0.008 0.004-0.012 0.007l-0.852 0.788c-0.005 0.005-0.008 0.012-0.013 0.019s-0.016 0.009-0.021 0.016c-0.132 0.148-0.245 0.296-0.337 0.449-0.479 0.801-0.931 2.457-0.217 3.739 0.623 1.12 1.808 2.889 2.897 4.319 1.139 1.381 2.591 2.949 3.532 3.809 0.705 0.644 1.687 0.86 2.536 0.86 0.455 0 0.872-0.063 1.188-0.152 0.167-0.048 0.339-0.117 0.516-0.204 0.011-0.005 0.016-0.015 0.027-0.021 0.005-0.003 0.013-0.001 0.019-0.005l0.989-0.619c0.032-0.021 0.053-0.049 0.080-0.076l0.012 0.013c0.609-0.423 1.304-0.919 1.739-0.847 0.385 0.047 1.26 0.417 2.799 2.36l0.177 0.223c0.749 0.935 1.776 2.215 1.297 3.333z"></path>
        </symbol>
        <symbol id="icon-btn-close" viewBox="0 0 32 32">
            <path d="M0.292 25.708c0-0 0-0 0-0l9.708-9.708-9.708-9.708c-0-0-0-0-0-0-0.104-0.105-0.18-0.227-0.229-0.357-0.133-0.356-0.057-0.771 0.229-1.057l4.586-4.586c0.286-0.286 0.702-0.361 1.057-0.229 0.13 0.048 0.252 0.124 0.357 0.228 0 0 0 0 0 0l9.708 9.708 9.708-9.708c0-0 0-0 0-0 0.105-0.104 0.227-0.18 0.357-0.228 0.356-0.133 0.771-0.057 1.057 0.229l4.586 4.586c0.286 0.286 0.361 0.702 0.229 1.057-0.049 0.13-0.124 0.252-0.229 0.357-0 0-0 0-0 0l-9.708 9.708 9.708 9.708c0 0 0 0 0 0 0.104 0.105 0.18 0.227 0.229 0.357 0.133 0.355 0.057 0.771-0.229 1.057l-4.586 4.586c-0.286 0.286-0.702 0.361-1.057 0.229-0.13-0.049-0.252-0.124-0.357-0.229-0-0-0-0-0-0l-9.708-9.708-9.708 9.708c-0 0-0 0-0 0-0.105 0.105-0.227 0.18-0.357 0.229-0.356 0.133-0.771 0.057-1.057-0.229l-4.586-4.586c-0.286-0.286-0.362-0.702-0.229-1.057 0.049-0.13 0.124-0.252 0.229-0.357z"></path>
        </symbol>

    </defs>
</svg>
