<svg viewBox="0 0 74 42" xmlns="http://www.w3.org/2000/svg" xmlns:xlink="http://www.w3.org/1999/xlink" width="74.000000" height="42.000000" fill="none" customFrame="#000000">
	<path id="logo" d="M1.54 4.109L7.326 4.109C8.69 4.109 9.73867 4.21167 10.472 4.417C11.22 4.60767 11.748 4.923 12.056 5.363C12.364 5.78833 12.518 6.38966 12.518 7.167L12.518 8.927C12.518 9.323 12.3567 9.697 12.034 10.049C11.726 10.401 11.3593 10.643 10.934 10.775L10.934 10.885C11.4913 10.9437 11.9973 11.1857 12.452 11.611C12.9213 12.0217 13.156 12.4837 13.156 12.997L13.156 15.197C13.156 16.3557 12.694 17.177 11.77 17.661C10.846 18.145 9.416 18.387 7.48 18.387L1.54 18.387L1.54 4.109ZM7.326 9.917C7.86867 9.917 8.272 9.873 8.536 9.785C8.8 9.697 8.976 9.55766 9.064 9.367C9.16667 9.16166 9.218 8.86833 9.218 8.487L9.218 7.783C9.218 7.44567 9.174 7.19633 9.086 7.035C8.998 6.859 8.81467 6.73433 8.536 6.661C8.272 6.58766 7.84667 6.551 7.26 6.551L4.972 6.551L4.972 9.917L7.326 9.917ZM7.414 15.945C8.25 15.945 8.844 15.8497 9.196 15.659C9.548 15.4683 9.724 15.1603 9.724 14.735L9.724 13.591C9.724 13.063 9.58467 12.689 9.306 12.469C9.042 12.249 8.56533 12.139 7.876 12.139L4.972 12.139L4.972 15.945L7.414 15.945ZM20.7188 18.607C16.9495 18.607 15.0648 17.4557 15.0648 15.153L15.0648 11.325C15.0648 9.99033 15.4902 9.02233 16.3408 8.421C17.2062 7.81966 18.5335 7.519 20.3228 7.519C22.0095 7.519 23.2415 7.81233 24.0188 8.399C24.8108 8.971 25.2068 9.94633 25.2068 11.325L25.2068 13.921L18.2988 13.921L18.2988 14.889C18.2988 15.505 18.5188 15.945 18.9588 16.209C19.3988 16.473 20.1908 16.605 21.3348 16.605C22.3908 16.605 23.5788 16.451 24.8988 16.143L24.8988 18.189C23.5935 18.4677 22.2002 18.607 20.7188 18.607ZM22.1488 12.095L22.1488 10.555C22.1488 10.203 22.0022 9.939 21.7088 9.763C21.4302 9.587 20.9535 9.499 20.2788 9.499C19.5015 9.499 18.9808 9.587 18.7168 9.763C18.4382 9.95367 18.2988 10.2177 18.2988 10.555L18.2988 12.095L22.1488 12.095ZM30.6759 18.607C29.6786 18.607 28.9306 18.519 28.4319 18.343C27.9479 18.1523 27.6032 17.8223 27.3979 17.353C27.2072 16.869 27.1119 16.1503 27.1119 15.197C27.1119 14.3463 27.2146 13.679 27.4199 13.195C27.6399 12.711 27.9846 12.3663 28.4539 12.161C28.9379 11.941 29.5979 11.831 30.4339 11.831L34.0419 11.831L34.0419 11.105C34.0419 10.6503 33.9759 10.313 33.8439 10.093C33.7266 9.873 33.4992 9.719 33.1619 9.631C32.8392 9.543 32.3479 9.499 31.6879 9.499C30.7786 9.499 29.5319 9.587 27.9479 9.763L27.9479 7.739C29.1066 7.59233 30.4632 7.519 32.0179 7.519C33.3819 7.519 34.4306 7.62167 35.1639 7.827C35.9119 8.03233 36.4472 8.38433 36.7699 8.883C37.0926 9.38167 37.2539 10.1077 37.2539 11.061L37.2539 18.387L34.1079 18.387L34.1079 17.419C33.8586 17.8443 33.5212 18.145 33.0959 18.321C32.6706 18.5117 31.8639 18.607 30.6759 18.607ZM31.9299 16.605C32.5752 16.605 33.0372 16.583 33.3159 16.539C33.5212 16.5097 33.6606 16.4657 33.7339 16.407C33.8219 16.3483 33.8952 16.253 33.9539 16.121C34.0126 16.0183 34.0419 15.8643 34.0419 15.659L34.0419 13.591L31.8419 13.591C31.3432 13.591 30.9912 13.6277 30.7859 13.701C30.5806 13.7597 30.4412 13.8917 30.3679 14.097C30.2946 14.2877 30.2579 14.6323 30.2579 15.131C30.2579 15.615 30.2946 15.9523 30.3679 16.143C30.4412 16.3337 30.5806 16.4583 30.7859 16.517C31.0059 16.5757 31.3872 16.605 31.9299 16.605ZM43.7759 18.607C42.4119 18.607 41.4512 18.365 40.8939 17.881C40.3512 17.3823 40.0799 16.605 40.0799 15.549L40.0799 7.739L43.2919 7.739L43.2919 15.109C43.2919 15.5197 43.3285 15.8277 43.4019 16.033C43.4899 16.2383 43.6512 16.385 43.8859 16.473C44.1352 16.561 44.5092 16.605 45.0079 16.605C45.6385 16.605 46.1005 16.5683 46.3939 16.495C46.6872 16.407 46.8852 16.2603 46.9879 16.055C47.0905 15.8497 47.1419 15.5343 47.1419 15.109L47.1419 7.739L50.3539 7.739L50.3539 18.387L47.1859 18.387L47.1859 17.089C46.9512 18.101 45.8145 18.607 43.7759 18.607ZM58.4879 18.607C57.9452 18.607 57.4905 18.585 57.1239 18.541C56.7572 18.497 56.3905 18.409 56.0239 18.277C55.6132 18.145 55.2759 17.9617 55.0119 17.727C54.7625 17.4923 54.5572 17.1697 54.3959 16.759C54.2199 16.3337 54.1319 15.8423 54.1319 15.285L54.1319 9.719L51.9759 9.719L51.9759 7.739L54.1319 7.739L54.1319 4.659L57.3439 4.659L57.3439 7.739L60.2699 7.739L60.2699 9.719L57.3439 9.719L57.3439 14.735C57.3439 15.2483 57.3879 15.637 57.4759 15.901C57.5639 16.1503 57.7325 16.3337 57.9819 16.451C58.2312 16.5537 58.6125 16.605 59.1259 16.605C59.3312 16.605 59.7125 16.5683 60.2699 16.495L60.2699 18.497C59.5805 18.5703 58.9865 18.607 58.4879 18.607ZM65.1368 18.299L60.8908 7.739L64.3888 7.739L66.7868 15.263L68.9648 7.739L72.2868 7.739L66.4568 22.963L63.2008 22.963L65.1368 18.299ZM0.88 37.297L8.316 27.551L1.1 27.551L1.1 25.109L12.54 25.109L12.54 27.177L5.104 36.923L12.672 36.923L12.672 39.387L0.88 39.387L0.88 37.297ZM19.9827 39.607C19.3227 39.607 18.78 39.585 18.3547 39.541C17.9294 39.497 17.4747 39.409 16.9907 39.277C16.4627 39.1303 16.0374 38.925 15.7147 38.661C15.392 38.3823 15.1207 37.9937 14.9007 37.495C14.6807 37.011 14.5707 36.4243 14.5707 35.735L14.5707 32.589C14.5707 31.885 14.6807 31.269 14.9007 30.741C15.1207 30.213 15.4067 29.8023 15.7587 29.509C16.0667 29.2597 16.47 29.0543 16.9687 28.893C17.482 28.717 17.9807 28.607 18.4647 28.563C19.022 28.5337 19.528 28.519 19.9827 28.519C20.6574 28.519 21.1927 28.541 21.5887 28.585C21.9994 28.6143 22.4467 28.7023 22.9307 28.849C23.4587 29.0103 23.884 29.2303 24.2067 29.509C24.544 29.7877 24.83 30.1837 25.0647 30.697C25.2847 31.225 25.3947 31.8557 25.3947 32.589L25.3947 35.735C25.3947 36.395 25.2847 36.9743 25.0647 37.473C24.8594 37.9717 24.588 38.3603 24.2507 38.639C23.9574 38.8883 23.554 39.0937 23.0407 39.255C22.542 39.4017 22.0507 39.497 21.5667 39.541C21.1267 39.585 20.5987 39.607 19.9827 39.607ZM19.9827 37.605C20.584 37.605 21.0387 37.561 21.3467 37.473C21.6547 37.3703 21.8674 37.2163 21.9847 37.011C22.1167 36.8057 22.1827 36.505 22.1827 36.109L22.1827 32.083C22.1827 31.4963 22.0287 31.0857 21.7207 30.851C21.4127 30.6163 20.8334 30.499 19.9827 30.499C19.132 30.499 18.5527 30.6163 18.2447 30.851C17.9367 31.0857 17.7827 31.4963 17.7827 32.083L17.7827 36.109C17.7827 36.505 17.8414 36.8057 17.9587 37.011C18.0907 37.2163 18.3107 37.3703 18.6187 37.473C18.9267 37.561 19.3814 37.605 19.9827 37.605ZM27.8982 28.739L31.0662 28.739L31.0662 30.037C31.3156 29.025 32.4522 28.519 34.4762 28.519C35.8402 28.519 36.7936 28.7683 37.3362 29.267C37.8936 29.751 38.1722 30.521 38.1722 31.577L38.1722 39.387L34.9602 39.387L34.9602 31.995C34.9602 31.5843 34.9162 31.2763 34.8282 31.071C34.7549 30.8657 34.5936 30.719 34.3442 30.631C34.1096 30.543 33.7429 30.499 33.2442 30.499C32.6136 30.499 32.1516 30.543 31.8582 30.631C31.5649 30.7043 31.3669 30.8437 31.2642 31.049C31.1616 31.2543 31.1102 31.5697 31.1102 31.995L31.1102 39.387L27.8982 39.387L27.8982 28.739ZM46.3282 39.607C42.5589 39.607 40.6742 38.4557 40.6742 36.153L40.6742 32.325C40.6742 30.9903 41.0996 30.0223 41.9502 29.421C42.8156 28.8197 44.1429 28.519 45.9322 28.519C47.6189 28.519 48.8509 28.8123 49.6282 29.399C50.4202 29.971 50.8162 30.9463 50.8162 32.325L50.8162 34.921L43.9082 34.921L43.9082 35.889C43.9082 36.505 44.1282 36.945 44.5682 37.209C45.0082 37.473 45.8002 37.605 46.9442 37.605C48.0002 37.605 49.1882 37.451 50.5082 37.143L50.5082 39.189C49.2029 39.4677 47.8096 39.607 46.3282 39.607ZM47.7582 33.095L47.7582 31.555C47.7582 31.203 47.6116 30.939 47.3182 30.763C47.0396 30.587 46.5629 30.499 45.8882 30.499C45.1109 30.499 44.5902 30.587 44.3262 30.763C44.0476 30.9537 43.9082 31.2177 43.9082 31.555L43.9082 33.095L47.7582 33.095Z" fill="rgb(42.5,127.5,255)" fill-rule="nonzero" />
</svg>
